<svg width="170" height="170" xmlns="http://www.w3.org/2000/svg" xmlns:svg="http://www.w3.org/2000/svg">
 <style type="text/css">.st0{fill:#FF4500;}
	.st1{fill:#FFFFFF;}
	.st2{display:none;}
	.st3{display:inline;fill:none;stroke:#D8D8D8;stroke-width:0.5;stroke-miterlimit:10;}</style>

 <g>
  <title>Layer 1</title>
  <g id="Artwork">
   <g id="svg_1">
    <circle id="svg_2" r="85.5" cy="85.50001" cx="85.50001" class="st0"/>
    <path id="svg_3" d="m142.5,85.5c0,-6.90001 -5.60001,-12.5 -12.5,-12.5c-3.40001,0 -6.40001,1.3 -8.60001,3.5c-8.5,-6.10001 -20.3,-10.10001 -33.3,-10.60001l5.70001,-26.7l18.5,3.89999c0.2,4.70001 4.09999,8.5 8.89999,8.5c4.89999,0 8.89999,-4 8.89999,-8.89999c0,-4.9 -4,-8.9 -8.89999,-8.9c-3.5,0 -6.5,2 -7.89999,5l-20.70001,-4.4c-0.59999,-0.1 -1.2,0 -1.7,0.3c-0.5,0.3 -0.8,0.8 -1,1.4l-6.3,29.8c-13.29999,0.40001 -25.2,4.3 -33.79999,10.60001c-2.20001,-2.10001 -5.3,-3.5 -8.60001,-3.5c-6.9,0 -12.5,5.59999 -12.5,12.5c0,5.09999 3,9.39999 7.4,11.39999c-0.2,1.2 -0.3,2.5 -0.3,3.8c0,19.2 22.3,34.7 49.9,34.7s49.90001,-15.5 49.90001,-34.7c0,-1.3 -0.10001,-2.5 -0.3,-3.7c4.10001,-2 7.2,-6.39999 7.2,-11.5zm-85.5,8.90001c0,-4.90001 4,-8.90001 8.89999,-8.90001c4.90001,0 8.90001,4 8.90001,8.90001c0,4.89999 -4,8.89999 -8.90001,8.89999c-4.89999,0 -8.89999,-4 -8.89999,-8.89999zm49.70001,23.5c-6.09999,6.09999 -17.7,6.5 -21.09999,6.5c-3.40001,0 -15.10001,-0.5 -21.10001,-6.5c-0.89999,-0.90001 -0.89999,-2.40001 0,-3.3c0.89999,-0.89999 2.39999,-0.89999 3.3,0c3.8,3.8 12,5.2 17.89999,5.2s14,-1.39999 17.89999,-5.2c0.89999,-0.89999 2.39999,-0.89999 3.3,0c0.7,1 0.7,2.39999 -0.2,3.3zm-1.60001,-14.60001c-4.89999,0 -8.89999,-4 -8.89999,-8.89999c0,-4.90001 4,-8.90001 8.89999,-8.90001c4.89999,0 8.89999,4 8.89999,8.90001c0,4.89999 -4,8.89999 -8.89999,8.89999z" class="st1"/>
   </g>
  </g>
  <g class="st2" id="Spacing_Guide">
   <rect id="svg_4" height="85.4" width="85.4" class="st3"/>
   <rect id="svg_5" height="85.4" width="341.8" class="st3"/>
   <rect id="svg_6" height="85.4" width="341.8" class="st3" y="256.3"/>
   <rect id="svg_7" height="341.8" width="85.4" class="st3"/>
   <rect id="svg_8" height="341.8" width="85.4" class="st3" x="256.4"/>
  </g>
 </g>
</svg>